<svg width="512" height="512" viewBox="0 0 512 512" fill="none" xmlns="http://www.w3.org/2000/svg">
<path d="M322.363 462.06L341.934 464.611L361.427 467.85L374.345 470.698L322.208 463.436L322.363 462.06Z" fill="#D9D9D9"/>
<path d="M321.094 475.854L340.305 480.378L359.369 485.579L371.931 489.723L320.8 477.208L321.094 475.854Z" fill="#D9D9D9"/>
<path d="M324.694 453.73L344.258 451.129L363.925 449.212L377.14 448.618L324.9 455.1L324.694 453.73Z" fill="#D9D9D9"/>
<path d="M426.068 241.244L473.151 15.4955L496 0L444.07 246.782L426.068 241.244Z" fill="#D9D9D9"/>
<path d="M280.666 140.573L496 0L490.461 26.5766L294.513 154.422L280.666 140.573Z" fill="#D9D9D9"/>
<path d="M297.283 129.755L461.38 295.257L464.88 299.413C469.25 304.603 469.217 312.196 464.802 317.348L464.15 318.108L459.996 321.571L279.973 140.572L297.283 129.755Z" fill="#D9D9D9"/>
<path d="M464.842 316.031L459.996 321.571L312.515 443.446L301.437 428.212L449.61 304.951L464.842 316.031Z" fill="#D9D9D9"/>
<path d="M324.286 410.206L310.439 488.456L293.129 480.84L301.437 428.21L324.286 410.206Z" fill="#D9D9D9"/>
<path d="M310.439 488.456L292.436 509.923L279.973 507.154L293.821 478.069L310.439 488.456Z" fill="#D9D9D9"/>
<path d="M310.297 329.459C310.297 329.459 328.186 330.717 339.377 328.766C343.258 328.09 347.827 327.218 349.212 326.526C350.597 325.833 358.213 319.601 358.213 319.601C358.213 319.601 351.982 320.293 349.212 320.293C346.443 320.293 345.75 320.293 343.673 319.601C341.596 318.908 339.377 316.994 339.377 316.994L310.297 315.609V329.459Z" fill="#D9D9D9"/>
<path d="M292.436 509.923L255.739 512V504.492L285.512 496.073L292.436 509.923Z" fill="#D9D9D9"/>
<path d="M386.434 263.283L310.439 313.952C310.439 313.952 308.752 319.198 306.631 321.915C303.05 326.504 293.821 329.533 293.821 329.533L311.824 329.533L320.825 329.186L399.569 276.537L386.434 263.283Z" fill="#D9D9D9"/>
<path d="M408.95 270.264L425.313 259.324L412.198 246.105L395.826 257.021L408.95 270.264Z" fill="#D9D9D9"/>
<path d="M444.07 246.782L434.696 253.051L421.591 239.842L435.07 230.855L444.07 246.782Z" fill="#D9D9D9"/>
<path d="M189.637 462.06L170.066 464.611L150.573 467.85L137.655 470.698L189.792 463.436L189.637 462.06Z" fill="#D9D9D9"/>
<path d="M190.906 475.854L171.695 480.378L152.631 485.579L140.069 489.723L191.2 477.208L190.906 475.854Z" fill="#D9D9D9"/>
<path d="M187.306 453.73L167.742 451.129L148.075 449.212L134.86 448.618L187.1 455.1L187.306 453.73Z" fill="#D9D9D9"/>
<path d="M85.9318 241.244L38.8491 15.4955L16 0L67.9296 246.782L85.9318 241.244Z" fill="#D9D9D9"/>
<path d="M231.334 140.573L16 0L21.5391 26.5766L217.487 154.422L231.334 140.573Z" fill="#D9D9D9"/>
<path d="M214.717 129.755L50.6198 295.257L47.1199 299.413C42.7496 304.603 42.7827 312.196 47.198 317.348L47.85 318.108L52.0043 321.571L232.027 140.572L214.717 129.755Z" fill="#D9D9D9"/>
<path d="M47.1577 316.031L52.0043 321.571L199.485 443.446L210.563 428.212L62.3904 304.951L47.1577 316.031Z" fill="#D9D9D9"/>
<path d="M187.714 410.206L201.561 488.456L218.871 480.84L210.563 428.21L187.714 410.206Z" fill="#D9D9D9"/>
<path d="M201.561 488.456L219.564 509.923L232.027 507.154L218.179 478.069L201.561 488.456Z" fill="#D9D9D9"/>
<path d="M201.703 329.459C201.703 329.459 183.814 330.717 172.623 328.766C168.742 328.09 164.172 327.218 162.788 326.526C161.403 325.833 153.787 319.601 153.787 319.601C153.787 319.601 160.018 320.293 162.788 320.293C165.557 320.293 166.25 320.293 168.327 319.601C170.404 318.908 172.623 316.994 172.623 316.994L201.703 315.609V329.459Z" fill="#D9D9D9"/>
<path d="M219.564 509.923L256.261 512V504.492L226.488 496.073L219.564 509.923Z" fill="#D9D9D9"/>
<path d="M125.566 263.283L201.561 313.952C201.561 313.952 203.248 319.198 205.369 321.915C208.95 326.504 218.179 329.533 218.179 329.533L200.176 329.533L191.175 329.186L112.431 276.537L125.566 263.283Z" fill="#D9D9D9"/>
<path d="M103.05 270.264L86.6869 259.324L99.8017 246.105L116.174 257.021L103.05 270.264Z" fill="#D9D9D9"/>
<path d="M67.9296 246.782L77.3044 253.051L90.4087 239.842L76.9298 230.855L67.9296 246.782Z" fill="#D9D9D9"/>
</svg>
